<svg width="200" height="200" viewBox="0 0 200 200" xmlns="http://www.w3.org/2000/svg">
  <!-- Background circle -->
  <circle cx="100" cy="100" r="95" fill="#f8fafc" stroke="#e2e8f0" stroke-width="2"/>
  
  <!-- Main house shape -->
  <g transform="translate(100, 100)">
    <!-- House base -->
    <rect x="-35" y="-10" width="70" height="50" fill="#3b82f6" rx="4"/>
    
    <!-- Roof -->
    <polygon points="-45,-10 0,-45 45,-10" fill="#1e40af"/>
    
    <!-- Door -->
    <rect x="-8" y="15" width="16" height="25" fill="#fbbf24" rx="2"/>
    <circle cx="5" cy="27" r="1.5" fill="#92400e"/>
    
    <!-- Windows -->
    <rect x="-28" y="0" width="12" height="12" fill="#fef3c7" rx="1"/>
    <rect x="16" y="0" width="12" height="12" fill="#fef3c7" rx="1"/>
    
    <!-- Window frames -->
    <line x1="-22" y1="0" x2="-22" y2="12" stroke="#92400e" stroke-width="1"/>
    <line x1="-28" y1="6" x2="-16" y2="6" stroke="#92400e" stroke-width="1"/>
    <line x1="22" y1="0" x2="22" y2="12" stroke="#92400e" stroke-width="1"/>
    <line x1="16" y1="6" x2="28" y2="6" stroke="#92400e" stroke-width="1"/>
    
    <!-- Chimney -->
    <rect x="25" y="-35" width="8" height="20" fill="#dc2626"/>
    
    <!-- Heart symbol for "living" -->
    <g transform="translate(0, -65)">
      <path d="M0,5 C-8,-3 -15,2 -8,12 L0,20 L8,12 C15,2 8,-3 0,5 Z" fill="#ef4444"/>
    </g>
    
    <!-- Decorative plants -->
    <g transform="translate(-50, 25)">
      <ellipse cx="0" cy="8" rx="6" ry="4" fill="#22c55e"/>
      <rect x="-1" y="8" width="2" height="8" fill="#16a34a"/>
    </g>
    
    <g transform="translate(50, 25)">
      <ellipse cx="0" cy="8" rx="6" ry="4" fill="#22c55e"/>
      <rect x="-1" y="8" width="2" height="8" fill="#16a34a"/>
    </g>
  </g>
  
  <!-- Text elements -->
  <text x="100" y="170" text-anchor="middle" font-family="Arial, sans-serif" font-size="14" font-weight="bold" fill="#1e40af">CHANNEL</text>
  <text x="100" y="185" text-anchor="middle" font-family="Arial, sans-serif" font-size="12" fill="#64748b">LIVING</text>
</svg>